# xmcd
# 
# Track frame offsets:
#     150
#     11161
#     25160
#     54732
#     83603
#     114267
#     157500
# 
# Disc length: 2380
# 
# Revision: 1
# Processed by: cddbd v1.5.2PL0 Copyright (c) Steve Scherf et al.
# Submitted via: BonkEnc v1.0
# 
DISCID=41094a07
DTITLE=Fedde le Grand - Put your Hands up for Detroid
DYEAR=2007
DGENRE=House
TTITLE0=Put your Hands up for Detroid (Radio Edit)
TTITLE1=Put your Hands up for Detroid (feat.King Gordy and Bizarre)
TTITLE2=Put your Hands up for Detroid (Club Mix)
TTITLE3=Put your Hands up for Detroid (Dj Delicious Remix)
TTITLE4=Put your Hands up for Detroid (TV Rock and Dirty South Remix)
TTITLE5=Put your Hands up for Detroid (Jay Frog's Hands up for Hamburg Remix)
TTITLE6=Daten-CD
EXTD=
EXTT0=
EXTT1=
EXTT2=
EXTT3=
EXTT4=
EXTT5=
EXTT6=
PLAYORDER=
